# xmcd
#
# Track frame offsets:
#	150
#	18413
#	26903
#	35376
#	41057
#	48082
#	63851
#	65931
#	66696
#	86454
#	96573
#	120730
#	128303
#	129366
#	134232
#	152778
#	164306
#	189866
#	194589
#	205215
#
# Disc length: 3094 seconds
#
# Revision: 0
# Processed by: cddbd v1.5.2PL0 Copyright (c) Steve Scherf et al.
# Submitted via: EasyCDDAExtractor 11.6.0.1
#
DISCID=280c1414
DTITLE=Jimi Hendrix - Jimi Hendrix - Astro Man´s Mannish Boy Session Edit 2004
DTITLE=, April 22 1969 NY CD 2
DYEAR=1969
DGENRE=Blues
TTITLE0=Mannish Boy - Take 26
TTITLE1=Mannish Boy - Take 27
TTITLE2=Mannish Boy - Take 28
TTITLE3=Mannish Boy - Take 29
TTITLE4=Mannish Boy - Take 30
TTITLE5=Mannish Boy - Take 31
TTITLE6=Mannish Boy - Take 32
TTITLE7=Mannish Boy - Take 33
TTITLE8=Mannish Boy - Take 34
TTITLE9=Mannish Boy - Take 35
TTITLE10=Mannish Boy - Take 36
TTITLE11=Mannish Boy - Take 37
TTITLE12=Mannish Boy - Take 38
TTITLE13=Mannish Boy - Take 39
TTITLE14=Mannish Boy - Take 40
TTITLE15=Mannish Boy - Take 41
TTITLE16=Mannish Boy - Take 42
TTITLE17=Mannish Boy - Take 43
TTITLE18=Mannish Boy - Take 44
TTITLE19=Mannish Boy - Composite 2004
EXTD=
EXTT0=
EXTT1=
EXTT2=
EXTT3=
EXTT4=
EXTT5=
EXTT6=
EXTT7=
EXTT8=
EXTT9=
EXTT10=
EXTT11=
EXTT12=
EXTT13=
EXTT14=
EXTT15=
EXTT16=
EXTT17=
EXTT18=
EXTT19=
PLAYORDER=
